<svg width="393" height="1404" viewBox="0 0 393 1404" fill="none" xmlns="http://www.w3.org/2000/svg">
<path d="M0 330.12C0 317.265 11.9533 307.748 24.4815 310.629L94.3227 326.687C96.9148 327.283 99.3621 328.39 101.521 329.943L184.82 389.871C191.798 394.891 201.202 394.891 208.18 389.871L291.479 329.943C293.638 328.39 296.085 327.283 298.677 326.687L368.518 310.629C381.047 307.748 393 317.265 393 330.12V1324C393 1335.05 384.046 1344 373 1344H294.5H196.5H101H20C8.95431 1344 0 1335.05 0 1324V330.12Z" fill="#1F3A56" fill-opacity="0.95"/>
<g filter="url(#filter0_dddd_138_5)">
<path d="M412.667 896.082C395.204 1334 394.704 1334 394.704 1334H6C6 1334 40.851 318.05 240.974 318.05C601.046 318.05 473.235 -622.725 412.667 896.082Z" fill="#001F3F"/>
</g>
<defs>
<filter id="filter0_dddd_138_5" x="-44" y="-1.52588e-05" width="579" height="1404" filterUnits="userSpaceOnUse" color-interpolation-filters="sRGB">
<feFlood flood-opacity="0" result="BackgroundImageFix"/>
<feColorMatrix in="SourceAlpha" type="matrix" values="0 0 0 0 0 0 0 0 0 0 0 0 0 0 0 0 0 0 127 0" result="hardAlpha"/>
<feOffset dx="4" dy="4"/>
<feGaussianBlur stdDeviation="4"/>
<feComposite in2="hardAlpha" operator="out"/>
<feColorMatrix type="matrix" values="0 0 0 0 0 0 0 0 0 0 0 0 0 0 0 0 0 0 0.4 0"/>
<feBlend mode="normal" in2="BackgroundImageFix" result="effect1_dropShadow_138_5"/>
<feColorMatrix in="SourceAlpha" type="matrix" values="0 0 0 0 0 0 0 0 0 0 0 0 0 0 0 0 0 0 127 0" result="hardAlpha"/>
<feOffset dx="-4" dy="-4"/>
<feGaussianBlur stdDeviation="4"/>
<feComposite in2="hardAlpha" operator="out"/>
<feColorMatrix type="matrix" values="0 0 0 0 1 0 0 0 0 1 0 0 0 0 1 0 0 0 0.2 0"/>
<feBlend mode="normal" in2="effect1_dropShadow_138_5" result="effect2_dropShadow_138_5"/>
<feColorMatrix in="SourceAlpha" type="matrix" values="0 0 0 0 0 0 0 0 0 0 0 0 0 0 0 0 0 0 127 0" result="hardAlpha"/>
<feOffset dx="4" dy="4"/>
<feGaussianBlur stdDeviation="4"/>
<feComposite in2="hardAlpha" operator="out"/>
<feColorMatrix type="matrix" values="0 0 0 0 0 0 0 0 0 0 0 0 0 0 0 0 0 0 0.5 0"/>
<feBlend mode="normal" in2="effect2_dropShadow_138_5" result="effect3_dropShadow_138_5"/>
<feColorMatrix in="SourceAlpha" type="matrix" values="0 0 0 0 0 0 0 0 0 0 0 0 0 0 0 0 0 0 127 0" result="hardAlpha"/>
<feOffset dy="20"/>
<feGaussianBlur stdDeviation="25"/>
<feComposite in2="hardAlpha" operator="out"/>
<feColorMatrix type="matrix" values="0 0 0 0 0 0 0 0 0 0.121569 0 0 0 0 0.247059 0 0 0 1 0"/>
<feBlend mode="normal" in2="effect3_dropShadow_138_5" result="effect4_dropShadow_138_5"/>
<feBlend mode="normal" in="SourceGraphic" in2="effect4_dropShadow_138_5" result="shape"/>
</filter>
</defs>
</svg>
