<svg width="1440" height="2021" viewBox="0 0 1440 2021" fill="none" xmlns="http://www.w3.org/2000/svg">
<path d="M0 20.5923C0 8.58461 10.5065 -0.716347 22.4255 0.739888L357.57 41.687C359.184 41.8841 360.768 42.2774 362.286 42.8579L712.858 176.88C717.457 178.638 722.543 178.638 727.142 176.88L1077.71 42.8579C1079.23 42.2774 1080.82 41.8841 1082.43 41.687L1417.57 0.739889C1429.49 -0.716346 1440 8.58461 1440 20.5923V2001C1440 2012.05 1431.05 2021 1420 2021H1079.08H720H370.076H20C8.95432 2021 0 2012.05 0 2001V20.5923Z" fill="#1F3A56" fill-opacity="0.95"/>
</svg>
