<svg width="140" height="111" viewBox="0 0 140 111" fill="none" xmlns="http://www.w3.org/2000/svg">
<g clip-path="url(#clip0_1_58)">
<g opacity="0.3">
<path d="M129.81 48.2416V14.8239C129.81 14.0548 129.215 13.4315 128.481 13.4315H121.171C120.437 13.4315 119.842 14.0548 119.842 14.8239V48.2416" fill="white" fill-opacity="0.2"/>
<path d="M129.81 48.2416V14.8239C129.81 14.0548 129.215 13.4315 128.481 13.4315H121.171C120.437 13.4315 119.842 14.0548 119.842 14.8239V48.2416" stroke="black" stroke-width="0.664557" stroke-linejoin="round" stroke-dasharray="6.65 6.65"/>
</g>
<g opacity="0.3">
<path d="M84.6203 48.2416L67.4036 31.2263C67.1511 30.9764 67.0015 30.6328 66.9876 30.269L66.396 14.7682C66.3675 14.0214 65.7813 13.4315 65.0679 13.4315H59.3671C58.633 13.4315 58.038 14.0548 58.038 14.8239V30.3022C58.038 30.6462 58.1595 30.978 58.3792 31.2337L72.9905 48.2416" fill="white" fill-opacity="0.2"/>
<path d="M84.6203 48.2416L67.4036 31.2263C67.1511 30.9764 67.0015 30.6328 66.9876 30.269L66.396 14.7682C66.3675 14.0214 65.7813 13.4315 65.0679 13.4315H59.3671C58.633 13.4315 58.038 14.0548 58.038 14.8239V30.3022C58.038 30.6462 58.1595 30.978 58.3792 31.2337L72.9905 48.2416" stroke="black" stroke-width="0.664557" stroke-linejoin="round" stroke-dasharray="6.65 6.65"/>
</g>
<path d="M30.1266 48.2416V14.8239C30.1266 14.0548 29.5315 13.4315 28.7975 13.4315H21.4873C20.7533 13.4315 20.1582 14.0548 20.1582 14.8239V48.2416" stroke="black" stroke-width="0.664557"/>
<path opacity="0.3" d="M109.293 51.7226C109.293 49.9923 110.632 48.5897 112.284 48.5897H114.973V48.2416H120.351V48.5897H125.73V48.2416H131.108V48.5897H133.797C135.449 48.5897 136.788 49.9923 136.788 51.7226V55.2036H137.12V62.1656H136.788V69.1277H137.12V76.0897H136.788V83.0517H137.12V90.0137H136.788V96.9758H137.12V103.938H136.788V107.419C136.788 109.149 135.449 110.552 133.797 110.552H130.475V110.9H123.829V110.552H120.506H117.184V110.9H110.538V110.552H107.215C105.564 110.552 104.225 109.149 104.225 107.419V102.761H103.892V93.4467H104.225V88.7891C104.225 88.3387 104.317 87.8938 104.496 87.4844L105.612 84.9314L105.311 84.7866L107.543 79.6807L107.845 79.8262L108.961 77.2732C109.18 76.7727 109.293 76.2289 109.293 75.6782V73.7532H108.961V69.9038H109.293V67.9789V63.9148H108.961V55.7867H109.293V51.7226Z" fill="black" fill-opacity="0.5" stroke="black" stroke-width="0.664557" stroke-linejoin="round" stroke-dasharray="6.65 6.65"/>
<path opacity="0.3" d="M129.81 59.7289C131.462 59.7289 132.801 58.3262 132.801 56.596C132.801 54.8657 131.462 53.4631 129.81 53.4631C128.159 53.4631 126.82 54.8657 126.82 56.596C126.82 58.3262 128.159 59.7289 129.81 59.7289Z" fill="black" fill-opacity="0.5" stroke="black" stroke-width="0.664557" stroke-linejoin="round" stroke-dasharray="6.65 6.65"/>
<path opacity="0.3" d="M116.519 59.7289C118.171 59.7289 119.509 58.3262 119.509 56.596C119.509 54.8657 118.171 53.4631 116.519 53.4631C114.867 53.4631 113.528 54.8657 113.528 56.596C113.528 58.3262 114.867 59.7289 116.519 59.7289Z" fill="black" fill-opacity="0.5" stroke="black" stroke-width="0.664557" stroke-linejoin="round" stroke-dasharray="6.65 6.65"/>
<path opacity="0.3" d="M116.519 68.7796C118.171 68.7796 119.509 67.3769 119.509 65.6466C119.509 63.9164 118.171 62.5137 116.519 62.5137C114.867 62.5137 113.528 63.9164 113.528 65.6466C113.528 67.3769 114.867 68.7796 116.519 68.7796Z" fill="black" fill-opacity="0.5" stroke="black" stroke-width="0.664557" stroke-linejoin="round" stroke-dasharray="6.65 6.65"/>
<path opacity="0.3" d="M129.81 68.7796C131.462 68.7796 132.801 67.3769 132.801 65.6466C132.801 63.9164 131.462 62.5137 129.81 62.5137C128.159 62.5137 126.82 63.9164 126.82 65.6466C126.82 67.3769 128.159 68.7796 129.81 68.7796Z" fill="black" fill-opacity="0.5" stroke="black" stroke-width="0.664557" stroke-linejoin="round" stroke-dasharray="6.65 6.65"/>
<path opacity="0.3" d="M129.81 77.8302C131.462 77.8302 132.801 76.4276 132.801 74.6973C132.801 72.967 131.462 71.5644 129.81 71.5644C128.159 71.5644 126.82 72.967 126.82 74.6973C126.82 76.4276 128.159 77.8302 129.81 77.8302Z" fill="black" fill-opacity="0.5" stroke="black" stroke-width="0.664557" stroke-linejoin="round" stroke-dasharray="6.65 6.65"/>
<path opacity="0.3" d="M116.519 77.8302C118.171 77.8302 119.509 76.4276 119.509 74.6973C119.509 72.967 118.171 71.5644 116.519 71.5644C114.867 71.5644 113.528 72.967 113.528 74.6973C113.528 76.4276 114.867 77.8302 116.519 77.8302Z" fill="black" fill-opacity="0.5" stroke="black" stroke-width="0.664557" stroke-linejoin="round" stroke-dasharray="6.65 6.65"/>
<path opacity="0.3" d="M132.801 85.3144H110.206C110.114 85.3144 110.04 85.3923 110.04 85.4884C110.04 85.5846 110.114 85.6625 110.206 85.6625H132.801C132.892 85.6625 132.967 85.5846 132.967 85.4884C132.967 85.3923 132.892 85.3144 132.801 85.3144Z" fill="black" fill-opacity="0.5" stroke="black" stroke-width="0.332278" stroke-linejoin="round" stroke-dasharray="6.65 6.65"/>
<path opacity="0.3" d="M132.801 92.2764H110.206C110.114 92.2764 110.04 92.3543 110.04 92.4504C110.04 92.5465 110.114 92.6245 110.206 92.6245H132.801C132.892 92.6245 132.967 92.5465 132.967 92.4504C132.967 92.3543 132.892 92.2764 132.801 92.2764Z" fill="black" fill-opacity="0.5" stroke="black" stroke-width="0.332278" stroke-linejoin="round" stroke-dasharray="6.65 6.65"/>
<path opacity="0.3" d="M132.801 99.2384H110.206C110.114 99.2384 110.04 99.3163 110.04 99.4125C110.04 99.5086 110.114 99.5865 110.206 99.5865H132.801C132.892 99.5865 132.967 99.5086 132.967 99.4125C132.967 99.3163 132.892 99.2384 132.801 99.2384Z" fill="black" fill-opacity="0.5" stroke="black" stroke-width="0.332278" stroke-linejoin="round" stroke-dasharray="6.65 6.65"/>
<path opacity="0.3" d="M64.019 110.552C62.3674 110.552 61.0285 109.149 61.0285 107.419V103.938H60.6962V96.9758H61.0285V90.0137H60.6962V83.0517H61.0285V76.0897H60.6962V69.1277H61.0285V62.1656H60.6962V55.2036H61.0285V51.7226C61.0285 49.9923 62.3674 48.5897 64.019 48.5897H67.5265V48.2416H74.5422V48.5897H81.5573V48.2416H88.573V48.5897H92.0806C93.9021 48.5897 95.301 50.2816 95.0405 52.1705L94.56 55.6515L94.889 55.7012L93.9294 62.6633L93.6004 62.6135L92.6408 69.5755L92.9691 69.6253L92.0095 76.5875L91.6805 76.5373L90.7209 83.4994L91.0498 83.5495L90.0896 90.5115L89.7606 90.4614L88.801 97.4234L89.1299 97.4735L88.1696 104.436L87.8407 104.385L87.3609 107.866C87.1482 109.408 85.8876 110.552 84.4009 110.552H81.8537V110.9H76.7579V110.552H71.6621V110.9H66.5668V110.552H64.019Z" fill="black" fill-opacity="0.5" stroke="black" stroke-width="0.664557" stroke-linejoin="round" stroke-dasharray="6.65 6.65"/>
<path opacity="0.3" d="M87.6108 66.865H64.3513C64.076 66.865 63.8528 67.0988 63.8528 67.3871C63.8528 67.6755 64.076 67.9093 64.3513 67.9093H87.6108C87.886 67.9093 88.1092 67.6755 88.1092 67.3871C88.1092 67.0988 87.886 66.865 87.6108 66.865Z" fill="black" fill-opacity="0.5" stroke="#4E4E4E" stroke-width="0.996835" stroke-linejoin="round" stroke-dasharray="6.65 6.65"/>
<path opacity="0.3" d="M85.6171 98.1941H64.3513C64.076 98.1941 63.8528 98.4279 63.8528 98.7162C63.8528 99.0046 64.076 99.2384 64.3513 99.2384H85.6171C85.8924 99.2384 86.1155 99.0046 86.1155 98.7162C86.1155 98.4279 85.8924 98.1941 85.6171 98.1941Z" fill="black" fill-opacity="0.5" stroke="#4E4E4E" stroke-width="0.996835" stroke-linejoin="round" stroke-dasharray="6.65 6.65"/>
<path opacity="0.3" d="M87.6108 77.308H64.3513C64.076 77.308 63.8528 77.5418 63.8528 77.8302C63.8528 78.1186 64.076 78.3523 64.3513 78.3523H87.6108C87.886 78.3523 88.1092 78.1186 88.1092 77.8302C88.1092 77.5418 87.886 77.308 87.6108 77.308Z" fill="black" fill-opacity="0.5" stroke="#4E4E4E" stroke-width="0.996835" stroke-linejoin="round" stroke-dasharray="6.65 6.65"/>
<path opacity="0.3" d="M85.6171 87.7511H64.3513C64.076 87.7511 63.8528 87.9849 63.8528 88.2733C63.8528 88.5616 64.076 88.7954 64.3513 88.7954H85.6171C85.8924 88.7954 86.1155 88.5616 86.1155 88.2733C86.1155 87.9849 85.8924 87.7511 85.6171 87.7511Z" fill="black" fill-opacity="0.5" stroke="#4E4E4E" stroke-width="0.996835" stroke-linejoin="round" stroke-dasharray="6.65 6.65"/>
<path opacity="0.3" d="M88.9399 57.1182H64.3513C64.076 57.1182 63.8528 57.3519 63.8528 57.6403C63.8528 57.9287 64.076 58.1625 64.3513 58.1625H88.9399C89.2151 58.1625 89.4383 57.9287 89.4383 57.6403C89.4383 57.3519 89.2151 57.1182 88.9399 57.1182Z" fill="black" fill-opacity="0.5" stroke="#4E4E4E" stroke-width="0.996835" stroke-linejoin="round" stroke-dasharray="6.65 6.65"/>
<path d="M38.1013 48.5897H10.0397C8.218 48.5897 6.81953 50.2816 7.07995 52.1704L14.7593 107.866C14.9718 109.408 16.2326 110.552 17.7191 110.552H38.1013C39.7529 110.552 41.0918 109.149 41.0918 107.419V51.7226C41.0918 49.9923 39.7529 48.5897 38.1013 48.5897Z" fill="#2A2A2A" stroke="black" stroke-width="0.664557"/>
<path d="M14.5095 66.865H37.769C38.0443 66.865 38.2674 67.0988 38.2674 67.3871C38.2674 67.6755 38.0443 67.9093 37.769 67.9093H14.5095C14.2342 67.9093 14.0111 67.6755 14.0111 67.3871C14.0111 67.0988 14.2342 66.865 14.5095 66.865Z" fill="#D9D9D9" stroke="#4E4E4E" stroke-width="0.996835"/>
<path d="M16.5032 98.1941H37.769C38.0443 98.1941 38.2674 98.4279 38.2674 98.7162C38.2674 99.0046 38.0443 99.2384 37.769 99.2384H16.5032C16.2279 99.2384 16.0047 99.0046 16.0047 98.7162C16.0047 98.4279 16.2279 98.1941 16.5032 98.1941Z" fill="#D9D9D9" stroke="#4E4E4E" stroke-width="0.996835"/>
<path d="M14.5095 77.308H37.769C38.0443 77.308 38.2674 77.5418 38.2674 77.8302C38.2674 78.1186 38.0443 78.3523 37.769 78.3523H14.5095C14.2342 78.3523 14.0111 78.1186 14.0111 77.8302C14.0111 77.5418 14.2342 77.308 14.5095 77.308Z" fill="#D9D9D9" stroke="#4E4E4E" stroke-width="0.996835"/>
<path d="M16.5032 87.7511H37.769C38.0443 87.7511 38.2674 87.9849 38.2674 88.2733C38.2674 88.5616 38.0443 88.7954 37.769 88.7954H16.5032C16.2279 88.7954 16.0047 88.5616 16.0047 88.2733C16.0047 87.9849 16.2279 87.7511 16.5032 87.7511Z" fill="#D9D9D9" stroke="#4E4E4E" stroke-width="0.996835"/>
<path d="M13.1804 57.1182H37.769C38.0443 57.1182 38.2674 57.3519 38.2674 57.6403C38.2674 57.9287 38.0443 58.1625 37.769 58.1625H13.1804C12.9051 58.1625 12.682 57.9287 12.682 57.6403C12.682 57.3519 12.9051 57.1182 13.1804 57.1182Z" fill="#D9D9D9" stroke="#4E4E4E" stroke-width="0.996835"/>
</g>
<defs>
<clipPath id="clip0_1_58">
<rect width="140" height="110" fill="white" transform="translate(0 0.899811)"/>
</clipPath>
</defs>
</svg>
