<svg width="140" height="110" viewBox="0 0 140 110" fill="none" xmlns="http://www.w3.org/2000/svg">
<g clip-path="url(#clip0_1_88)">
<path d="M129.589 47.3418V13.9241C129.589 13.1551 128.994 12.5317 128.259 12.5317H120.949C120.215 12.5317 119.62 13.1551 119.62 13.9241V47.3418" stroke="black" stroke-width="0.664557"/>
<path d="M84.3987 57.7848L67.1821 35.6649C66.9295 35.3401 66.78 34.8934 66.7661 34.4206L66.1745 14.2695C66.146 13.2986 65.5598 12.5317 64.8464 12.5317H59.1456C58.4115 12.5317 57.8165 13.3421 57.8165 14.3418V34.4636C57.8165 34.9108 57.938 35.3422 58.1576 35.6746L72.769 57.7848" stroke="black" stroke-width="0.664557"/>
<path d="M29.9051 47.3418V13.9241C29.9051 13.1551 29.31 12.5317 28.5759 12.5317H21.2658C20.5318 12.5317 19.9367 13.1551 19.9367 13.9241V47.3418" fill="white" fill-opacity="0.2"/>
<path d="M29.9051 47.3418V13.9241C29.9051 13.1551 29.31 12.5317 28.5759 12.5317H21.2658C20.5318 12.5317 19.9367 13.1551 19.9367 13.9241V47.3418" stroke="#4E4E4E" stroke-opacity="0.2" stroke-width="0.664557" stroke-linejoin="round" stroke-dasharray="3.99 3.99"/>
<path d="M112.062 47.6899H133.576C135.227 47.6899 136.566 49.0925 136.566 50.8228V106.519C136.566 108.249 135.227 109.652 133.576 109.652H120.285H106.994C105.342 109.652 104.003 108.249 104.003 106.519V87.8893C104.003 87.4389 104.096 86.994 104.275 86.5846L108.739 76.3734C108.959 75.8729 109.072 75.3291 109.072 74.7784V67.0791V50.8228C109.072 49.0925 110.411 47.6899 112.062 47.6899Z" fill="#2A2A2A" stroke="#2A2A2A" stroke-width="0.664557"/>
<path d="M129.589 58.8291C131.24 58.8291 132.579 57.4265 132.579 55.6962C132.579 53.9659 131.24 52.5633 129.589 52.5633C127.937 52.5633 126.598 53.9659 126.598 55.6962C126.598 57.4265 127.937 58.8291 129.589 58.8291Z" fill="#626262" stroke="black" stroke-width="0.664557"/>
<path d="M116.297 58.8291C117.949 58.8291 119.288 57.4265 119.288 55.6962C119.288 53.9659 117.949 52.5633 116.297 52.5633C114.646 52.5633 113.307 53.9659 113.307 55.6962C113.307 57.4265 114.646 58.8291 116.297 58.8291Z" fill="#626262" stroke="black" stroke-width="0.664557"/>
<path d="M116.297 67.8798C117.949 67.8798 119.288 66.4771 119.288 64.7469C119.288 63.0166 117.949 61.614 116.297 61.614C114.646 61.614 113.307 63.0166 113.307 64.7469C113.307 66.4771 114.646 67.8798 116.297 67.8798Z" fill="#626262" stroke="black" stroke-width="0.664557"/>
<path d="M129.589 67.8798C131.24 67.8798 132.579 66.4771 132.579 64.7469C132.579 63.0166 131.24 61.614 129.589 61.614C127.937 61.614 126.598 63.0166 126.598 64.7469C126.598 66.4771 127.937 67.8798 129.589 67.8798Z" fill="#626262" stroke="black" stroke-width="0.664557"/>
<path d="M129.589 76.9304C131.24 76.9304 132.579 75.5275 132.579 73.7975C132.579 72.0674 131.24 70.6646 129.589 70.6646C127.937 70.6646 126.598 72.0674 126.598 73.7975C126.598 75.5275 127.937 76.9304 129.589 76.9304Z" fill="#626262" stroke="black" stroke-width="0.664557"/>
<path d="M116.297 76.9304C117.949 76.9304 119.288 75.5275 119.288 73.7975C119.288 72.0674 117.949 70.6646 116.297 70.6646C114.646 70.6646 113.307 72.0674 113.307 73.7975C113.307 75.5275 114.646 76.9304 116.297 76.9304Z" fill="#626262" stroke="black" stroke-width="0.664557"/>
<path d="M132.579 84.4146H109.984C109.892 84.4146 109.818 84.4925 109.818 84.5886C109.818 84.6847 109.892 84.7627 109.984 84.7627H132.579C132.671 84.7627 132.745 84.6847 132.745 84.5886C132.745 84.4925 132.671 84.4146 132.579 84.4146Z" fill="#D9D9D9" stroke="black" stroke-width="0.332278"/>
<path d="M132.579 91.3766H109.984C109.892 91.3766 109.818 91.4546 109.818 91.5506C109.818 91.6467 109.892 91.7247 109.984 91.7247H132.579C132.671 91.7247 132.745 91.6467 132.745 91.5506C132.745 91.4546 132.671 91.3766 132.579 91.3766Z" fill="#D9D9D9" stroke="black" stroke-width="0.332278"/>
<path d="M132.579 98.3386H109.984C109.892 98.3386 109.818 98.4166 109.818 98.5127C109.818 98.6087 109.892 98.6867 109.984 98.6867H132.579C132.671 98.6867 132.745 98.6087 132.745 98.5127C132.745 98.4166 132.671 98.3386 132.579 98.3386Z" fill="#D9D9D9" stroke="black" stroke-width="0.332278"/>
<path d="M60.6832 54.6519H96.1521C98.8322 54.6519 100.865 57.1816 100.409 59.9479L96.8479 81.5302C96.4903 83.7003 94.6934 85.2848 92.5914 85.2848H64.2439C62.1421 85.2848 60.3453 83.7003 59.9874 81.5302L56.4266 59.9479C55.9703 57.1816 58.0034 54.6519 60.6832 54.6519Z" fill="#2A2A2A" stroke="black" stroke-width="0.664557"/>
<path d="M91.8298 61.2659H65.0058C64.7055 61.2659 64.462 61.4217 64.462 61.614C64.462 61.8062 64.7055 61.9621 65.0058 61.9621H91.8298C92.1302 61.9621 92.3734 61.8062 92.3734 61.614C92.3734 61.4217 92.1302 61.2659 91.8298 61.2659Z" fill="#D9D9D9" stroke="#4E4E4E" stroke-width="0.996835"/>
<path d="M90.512 68.9241H65.6592C65.365 68.9241 65.1266 69.08 65.1266 69.2722C65.1266 69.4644 65.365 69.6203 65.6592 69.6203H90.512C90.8057 69.6203 91.0443 69.4644 91.0443 69.2722C91.0443 69.08 90.8057 68.9241 90.512 68.9241Z" fill="#D9D9D9" stroke="#4E4E4E" stroke-width="0.996835"/>
<path d="M89.8441 77.2785H66.9913C66.6956 77.2785 66.4557 77.4345 66.4557 77.6266C66.4557 77.8188 66.6956 77.9747 66.9913 77.9747H89.8441C90.1398 77.9747 90.3797 77.8188 90.3797 77.6266C90.3797 77.4345 90.1398 77.2785 89.8441 77.2785Z" fill="#D9D9D9" stroke="#4E4E4E" stroke-width="0.996835"/>
<path opacity="0.3" d="M38.5913 109.453C40.2429 109.453 41.5818 108.05 41.5818 106.32V102.839H41.9141V95.8771H41.5818V88.915H41.9141V81.953H41.5818V74.991H41.9141V68.029H41.5818V61.0669H41.9141V54.1049H41.5818V50.6239C41.5818 48.8936 40.2429 47.491 38.5913 47.491H35.0837V47.1429H28.068V47.491H21.053V47.1429H14.0372V47.491H10.5297C8.70815 47.491 7.30926 49.1829 7.56976 51.0718L8.05023 54.5528L7.72128 54.6026L8.6809 61.5646L9.00985 61.5148L9.96947 68.4768L9.64118 68.5266L10.6008 75.4888L10.9298 75.4386L11.8894 82.4007L11.5604 82.4508L12.5207 89.4128L12.8497 89.3627L13.8093 96.3247L13.4803 96.3748L14.4406 103.337L14.7696 103.287L15.2494 106.768C15.462 108.309 16.7227 109.453 18.2093 109.453H20.7566V109.801H25.8524V109.453H30.9482V109.801H36.0435V109.453H38.5913Z" fill="#626262" stroke="black" stroke-width="0.664557" stroke-linejoin="round" stroke-dasharray="6.65 6.65"/>
<path opacity="0.3" d="M36.9332 55.5238H12.3446C12.0693 55.5238 11.8462 55.7576 11.8462 56.046C11.8462 56.3343 12.0693 56.5681 12.3446 56.5681H36.9332C37.2085 56.5681 37.4316 56.3343 37.4316 56.046C37.4316 55.7576 37.2085 55.5238 36.9332 55.5238Z" fill="#626262" stroke="#4E4E4E" stroke-width="0.996835" stroke-linejoin="round" stroke-dasharray="6.65 6.65"/>
<path opacity="0.3" d="M36.681 66H13.4215C13.1462 66 12.9231 66.2338 12.9231 66.5222C12.9231 66.8105 13.1462 67.0443 13.4215 67.0443H36.681C36.9562 67.0443 37.1794 66.8105 37.1794 66.5222C37.1794 66.2338 36.9562 66 36.681 66Z" fill="#626262" stroke="#4E4E4E" stroke-width="0.996835" stroke-linejoin="round" stroke-dasharray="6.65 6.65"/>
<path opacity="0.3" d="M36.681 76.4762H13.4215C13.1462 76.4762 12.9231 76.71 12.9231 76.9983C12.9231 77.2867 13.1462 77.5205 13.4215 77.5205H36.681C36.9562 77.5205 37.1794 77.2867 37.1794 76.9983C37.1794 76.71 36.9562 76.4762 36.681 76.4762Z" fill="#626262" stroke="#4E4E4E" stroke-width="0.996835" stroke-linejoin="round" stroke-dasharray="6.65 6.65"/>
<path opacity="0.3" d="M36.8412 86.9524H15.5754C15.3001 86.9524 15.0769 87.1862 15.0769 87.4745C15.0769 87.7629 15.3001 87.9967 15.5754 87.9967H36.8412C37.1164 87.9967 37.3396 87.7629 37.3396 87.4745C37.3396 87.1862 37.1164 86.9524 36.8412 86.9524Z" fill="#626262" stroke="#4E4E4E" stroke-width="0.996835" stroke-linejoin="round" stroke-dasharray="6.65 6.65"/>
<path opacity="0.3" d="M36.8412 97.4286H15.5754C15.3001 97.4286 15.0769 97.6624 15.0769 97.9507C15.0769 98.2391 15.3001 98.4729 15.5754 98.4729H36.8412C37.1164 98.4729 37.3396 98.2391 37.3396 97.9507C37.3396 97.6624 37.1164 97.4286 36.8412 97.4286Z" fill="#626262" stroke="#4E4E4E" stroke-width="0.996835" stroke-linejoin="round" stroke-dasharray="6.65 6.65"/>
</g>
<defs>
<clipPath id="clip0_1_88">
<rect width="140" height="110" fill="white"/>
</clipPath>
</defs>
</svg>
