<svg width="140" height="110" viewBox="0 0 140 110" fill="none" xmlns="http://www.w3.org/2000/svg">
<path d="M129.81 47.3417V13.924C129.81 13.155 129.215 12.5316 128.481 12.5316H121.171C120.437 12.5316 119.842 13.155 119.842 13.924V47.3417" stroke="black" stroke-width="0.664557"/>
<path d="M84.6203 47.3417L67.4036 30.3264C67.1511 30.0765 67.0015 29.733 66.9876 29.3692L66.396 13.8684C66.3675 13.1216 65.7813 12.5316 65.0679 12.5316H59.3671C58.633 12.5316 58.038 13.155 58.038 13.924V29.4023C58.038 29.7463 58.1595 30.0781 58.3792 30.3339L72.9905 47.3417" stroke="black" stroke-width="0.664557"/>
<path d="M30.1266 47.3417V13.924C30.1266 13.155 29.5315 12.5316 28.7975 12.5316H21.4873C20.7533 12.5316 20.1582 13.155 20.1582 13.924V47.3417" stroke="black" stroke-width="0.664557"/>
<path d="M112.284 47.6898H133.797C135.449 47.6898 136.788 49.0925 136.788 50.8227V106.519C136.788 108.249 135.449 109.652 133.797 109.652H120.506H107.215C105.564 109.652 104.225 108.249 104.225 106.519V87.8893C104.225 87.4388 104.317 86.9939 104.496 86.5846L108.961 76.3734C109.18 75.8728 109.293 75.3291 109.293 74.7784V67.0791V50.8227C109.293 49.0925 110.632 47.6898 112.284 47.6898Z" fill="#2A2A2A" stroke="black" stroke-width="0.664557"/>
<path d="M129.81 58.8291C131.462 58.8291 132.801 57.4264 132.801 55.6961C132.801 53.9659 131.462 52.5632 129.81 52.5632C128.159 52.5632 126.82 53.9659 126.82 55.6961C126.82 57.4264 128.159 58.8291 129.81 58.8291Z" fill="#626262" stroke="black" stroke-width="0.664557"/>
<path d="M116.519 58.8291C118.171 58.8291 119.509 57.4264 119.509 55.6961C119.509 53.9659 118.171 52.5632 116.519 52.5632C114.867 52.5632 113.528 53.9659 113.528 55.6961C113.528 57.4264 114.867 58.8291 116.519 58.8291Z" fill="#626262" stroke="black" stroke-width="0.664557"/>
<path d="M116.519 67.8797C118.171 67.8797 119.509 66.4771 119.509 64.7468C119.509 63.0165 118.171 61.6139 116.519 61.6139C114.867 61.6139 113.528 63.0165 113.528 64.7468C113.528 66.4771 114.867 67.8797 116.519 67.8797Z" fill="#626262" stroke="black" stroke-width="0.664557"/>
<path d="M129.81 67.8797C131.462 67.8797 132.801 66.4771 132.801 64.7468C132.801 63.0165 131.462 61.6139 129.81 61.6139C128.159 61.6139 126.82 63.0165 126.82 64.7468C126.82 66.4771 128.159 67.8797 129.81 67.8797Z" fill="#626262" stroke="black" stroke-width="0.664557"/>
<path d="M129.81 76.9304C131.462 76.9304 132.801 75.5277 132.801 73.7975C132.801 72.0672 131.462 70.6646 129.81 70.6646C128.159 70.6646 126.82 72.0672 126.82 73.7975C126.82 75.5277 128.159 76.9304 129.81 76.9304Z" fill="#626262" stroke="black" stroke-width="0.664557"/>
<path d="M116.519 76.9304C118.171 76.9304 119.509 75.5277 119.509 73.7975C119.509 72.0672 118.171 70.6646 116.519 70.6646C114.867 70.6646 113.528 72.0672 113.528 73.7975C113.528 75.5277 114.867 76.9304 116.519 76.9304Z" fill="#626262" stroke="black" stroke-width="0.664557"/>
<path d="M132.801 84.4146H110.206C110.114 84.4146 110.04 84.4925 110.04 84.5886C110.04 84.6847 110.114 84.7627 110.206 84.7627H132.801C132.892 84.7627 132.967 84.6847 132.967 84.5886C132.967 84.4925 132.892 84.4146 132.801 84.4146Z" fill="#D9D9D9" stroke="black" stroke-width="0.332278"/>
<path d="M132.801 91.3766H110.206C110.114 91.3766 110.04 91.4545 110.04 91.5506C110.04 91.6468 110.114 91.7247 110.206 91.7247H132.801C132.892 91.7247 132.967 91.6468 132.967 91.5506C132.967 91.4545 132.892 91.3766 132.801 91.3766Z" fill="#D9D9D9" stroke="black" stroke-width="0.332278"/>
<path d="M132.801 98.3386H110.206C110.114 98.3386 110.04 98.4165 110.04 98.5127C110.04 98.6088 110.114 98.6867 110.206 98.6867H132.801C132.892 98.6867 132.967 98.6088 132.967 98.5127C132.967 98.4165 132.892 98.3386 132.801 98.3386Z" fill="#D9D9D9" stroke="black" stroke-width="0.332278"/>
<path d="M64.019 47.6898H92.0806C93.9021 47.6898 95.301 49.3817 95.0405 51.2706L87.3609 106.967C87.1482 108.508 85.8876 109.652 84.4009 109.652H64.019C62.3674 109.652 61.0285 108.249 61.0285 106.519V50.8227C61.0285 49.0925 62.3674 47.6898 64.019 47.6898Z" fill="#2A2A2A" stroke="black" stroke-width="0.664557"/>
<path d="M87.6108 65.9652H64.3513C64.076 65.9652 63.8529 66.199 63.8529 66.4874C63.8529 66.7757 64.076 67.0095 64.3513 67.0095H87.6108C87.886 67.0095 88.1092 66.7757 88.1092 66.4874C88.1092 66.199 87.886 65.9652 87.6108 65.9652Z" fill="#D9D9D9" stroke="#4E4E4E" stroke-width="0.996835"/>
<path d="M85.6171 97.2943H64.3513C64.076 97.2943 63.8529 97.5281 63.8529 97.8165C63.8529 98.1048 64.076 98.3386 64.3513 98.3386H85.6171C85.8924 98.3386 86.1155 98.1048 86.1155 97.8165C86.1155 97.5281 85.8924 97.2943 85.6171 97.2943Z" fill="#D9D9D9" stroke="#4E4E4E" stroke-width="0.996835"/>
<path d="M87.6108 76.4082H64.3513C64.076 76.4082 63.8529 76.642 63.8529 76.9304C63.8529 77.2187 64.076 77.4525 64.3513 77.4525H87.6108C87.886 77.4525 88.1092 77.2187 88.1092 76.9304C88.1092 76.642 87.886 76.4082 87.6108 76.4082Z" fill="#D9D9D9" stroke="#4E4E4E" stroke-width="0.996835"/>
<path d="M85.6171 86.8513H64.3513C64.076 86.8513 63.8529 87.0851 63.8529 87.3735C63.8529 87.6618 64.076 87.8956 64.3513 87.8956H85.6171C85.8924 87.8956 86.1155 87.6618 86.1155 87.3735C86.1155 87.0851 85.8924 86.8513 85.6171 86.8513Z" fill="#D9D9D9" stroke="#4E4E4E" stroke-width="0.996835"/>
<path d="M88.9399 56.2184H64.3513C64.076 56.2184 63.8529 56.4522 63.8529 56.7405C63.8529 57.0289 64.076 57.2627 64.3513 57.2627H88.9399C89.2151 57.2627 89.4383 57.0289 89.4383 56.7405C89.4383 56.4522 89.2151 56.2184 88.9399 56.2184Z" fill="#D9D9D9" stroke="#4E4E4E" stroke-width="0.996835"/>
<path d="M38.1013 47.6898H10.0397C8.218 47.6898 6.81953 49.3817 7.07994 51.2706L14.7593 106.967C14.9718 108.508 16.2326 109.652 17.7191 109.652H38.1013C39.7529 109.652 41.0918 108.249 41.0918 106.519V50.8227C41.0918 49.0925 39.7529 47.6898 38.1013 47.6898Z" fill="#2A2A2A" stroke="black" stroke-width="0.664557"/>
<path d="M14.5095 65.9652H37.769C38.0443 65.9652 38.2674 66.199 38.2674 66.4874C38.2674 66.7757 38.0443 67.0095 37.769 67.0095H14.5095C14.2342 67.0095 14.0111 66.7757 14.0111 66.4874C14.0111 66.199 14.2342 65.9652 14.5095 65.9652Z" fill="#D9D9D9" stroke="#4E4E4E" stroke-width="0.996835"/>
<path d="M16.5032 97.2943H37.769C38.0443 97.2943 38.2674 97.5281 38.2674 97.8165C38.2674 98.1048 38.0443 98.3386 37.769 98.3386H16.5032C16.2279 98.3386 16.0047 98.1048 16.0047 97.8165C16.0047 97.5281 16.2279 97.2943 16.5032 97.2943Z" fill="#D9D9D9" stroke="#4E4E4E" stroke-width="0.996835"/>
<path d="M14.5095 76.4082H37.769C38.0443 76.4082 38.2674 76.642 38.2674 76.9304C38.2674 77.2187 38.0443 77.4525 37.769 77.4525H14.5095C14.2342 77.4525 14.0111 77.2187 14.0111 76.9304C14.0111 76.642 14.2342 76.4082 14.5095 76.4082Z" fill="#D9D9D9" stroke="#4E4E4E" stroke-width="0.996835"/>
<path d="M16.5032 86.8513H37.769C38.0443 86.8513 38.2674 87.0851 38.2674 87.3735C38.2674 87.6618 38.0443 87.8956 37.769 87.8956H16.5032C16.2279 87.8956 16.0047 87.6618 16.0047 87.3735C16.0047 87.0851 16.2279 86.8513 16.5032 86.8513Z" fill="#D9D9D9" stroke="#4E4E4E" stroke-width="0.996835"/>
<path d="M13.1804 56.2184H37.769C38.0443 56.2184 38.2674 56.4522 38.2674 56.7405C38.2674 57.0289 38.0443 57.2627 37.769 57.2627H13.1804C12.9051 57.2627 12.682 57.0289 12.682 56.7405C12.682 56.4522 12.9051 56.2184 13.1804 56.2184Z" fill="#D9D9D9" stroke="#4E4E4E" stroke-width="0.996835"/>
</svg>
