<svg width="40" height="40" viewBox="0 0 40 40" fill="none" xmlns="http://www.w3.org/2000/svg">
<g clip-path="url(#clip0_1_32)">
<g filter="url(#filter0_i_1_32)">
<path d="M4.95716 0.254591H9.01254C9.16199 0.254591 9.28306 0.3757 9.28306 0.525094C9.28306 0.674491 9.40419 0.795599 9.55358 0.795599H10.0835C10.1573 0.795599 10.217 0.855392 10.217 0.929155V1.30974V1.69032C10.217 1.76408 10.1573 1.82387 10.0835 1.82387H9.61695C9.43258 1.82387 9.28306 1.97336 9.28306 2.15776V2.41862V4.58264V8.91072V17.5667V34.5451C9.28306 34.7295 9.13361 34.8789 8.94917 34.8789H6.3105C6.16338 34.8789 6.044 34.7599 6.04358 34.6128L5.99425 17.1828L5.98173 12.7587L5.97547 10.5468L5.97234 9.44073L5.97097 8.95432C5.97086 8.91753 5.941 8.88775 5.90419 8.88775H5.69474C5.61443 8.88775 5.55227 8.81736 5.56221 8.73763L5.83722 6.53172L5.96319 5.51306C5.97304 5.4334 5.91091 5.36311 5.83065 5.36311H1.76682C1.61236 5.36311 1.47807 5.25717 1.44211 5.10697L1.35526 4.74427C1.34521 4.70228 1.37703 4.66194 1.4202 4.66194H6.35623L6.35657 4.44073L6.35696 4.1778H1.44237C1.39302 4.1778 1.36072 4.12613 1.38233 4.08177L3.22871 0.292121C3.23989 0.26916 3.2632 0.254591 3.28874 0.254591H4.95716L3.29679 3.49627C3.27403 3.5407 3.3063 3.59349 3.35623 3.59349H5.96183H6.36017C6.35889 3.59349 6.35785 3.59453 6.35784 3.59581L6.3105 34.8789H8.67905C8.86423 34.8789 9.01408 34.7282 9.01294 34.543L8.81935 3.59581C8.81935 3.59453 8.81828 3.59349 8.81702 3.59349C8.81575 3.59349 8.81468 3.59245 8.81468 3.59117V2.99249V2.12437V0.922371C8.81468 0.73797 8.66516 0.588481 8.48079 0.588481H5.94859L5.94638 0L5.94748 0.256678L5.94859 0.588481H4.79845C4.79026 0.588481 4.7821 0.587659 4.77408 0.586029C4.65911 0.562655 4.63982 0.406509 4.74564 0.35585L4.95716 0.254591Z" fill="#151385"/>
</g>
<path d="M9.21631 34.545C9.21631 34.6825 9.1126 34.7957 8.97918 34.8106C9.04228 34.7392 9.08035 34.6453 9.07975 34.5426L8.88616 3.5954C8.88609 3.58673 8.88442 3.57844 8.88148 3.57081V2.99249V2.12437V0.922371C8.88148 0.701089 8.70212 0.521703 8.48081 0.521703H6.01516L6.0145 0.321369H9.01257C9.12509 0.321369 9.21631 0.41258 9.21631 0.525094C9.21631 0.711373 9.36729 0.862378 9.5536 0.862378H10.0835C10.1203 0.862378 10.1503 0.892274 10.1503 0.929155V1.30974V1.69032C10.1503 1.7272 10.1203 1.7571 10.0835 1.7571H9.61697C9.39567 1.7571 9.21631 1.93648 9.21631 2.15776V2.41862V4.58264V8.91072V17.5667V34.545ZM1.42023 4.72871H6.28938L6.24387 34.8008C6.16629 34.7734 6.11063 34.6996 6.11038 34.6126L6.06105 17.1826L6.04853 12.7586L6.04228 10.5466L6.03914 9.44053L6.03777 8.95412C6.03756 8.88053 5.97783 8.82097 5.90421 8.82097H5.69476C5.65461 8.82097 5.62353 8.78578 5.6285 8.74591L5.90351 6.53998L5.90352 6.53991L6.02949 5.52125C6.04427 5.40176 5.95106 5.29633 5.83067 5.29633H1.76684C1.64328 5.29633 1.53584 5.21158 1.50707 5.09141L1.42023 4.72871ZM6.291 3.66027L6.29032 4.11102H1.44239L3.28877 0.321369H4.67621C4.57861 0.401728 4.59092 0.556946 4.69298 0.623941L3.23738 3.46582C3.19186 3.5547 3.2564 3.66027 3.35625 3.66027H5.96186H6.291ZM4.7745 0.416082L4.80755 0.400262L4.75556 0.501764C4.73452 0.476099 4.73905 0.433053 4.7745 0.416082ZM5.88158 0.521703H4.8954L4.99801 0.321369H5.88083L5.88158 0.521703Z" stroke="#151385" stroke-width="0.233723"/>
<path d="M9.16968 38.1757C9.36033 37.9092 9.71024 38.0373 9.61328 38.3502M6.10366 38.1791C5.91081 37.9132 5.5621 38.0445 5.66307 38.3571M7.86524 39.89C8.11459 39.7957 8.55659 39.6135 9.01742 39.3518C8.74644 39.6333 8.37522 39.8432 7.86524 39.89ZM9.15332 39.1947C8.70223 39.4686 8.24814 39.6676 7.95567 39.7834C8.17161 39.5604 8.5459 39.105 9.19686 38.1951C9.28494 38.072 9.40487 38.0453 9.48741 38.0769C9.52888 38.0927 9.56253 38.1234 9.58096 38.1666C9.59946 38.2098 9.60373 38.2682 9.58136 38.3404C9.49221 38.6282 9.35732 38.9323 9.15332 39.1947ZM9.1425 38.1563C8.35465 39.2576 7.97619 39.6869 7.79573 39.8447C7.74586 39.8632 7.70627 39.8773 7.67891 39.8867C7.66472 39.8917 7.65382 39.8954 7.6465 39.8978C7.64628 39.8979 7.64606 39.898 7.64584 39.898C7.64554 39.898 7.64523 39.8978 7.64492 39.8977C7.6374 39.8952 7.62623 39.8914 7.61169 39.8863C7.58362 39.8766 7.54299 39.8622 7.49185 39.8432C7.30843 39.6843 6.92531 39.2551 6.13069 38.1595C6.027 38.0165 5.8763 37.9749 5.761 38.02C5.70354 38.0425 5.65644 38.0864 5.63133 38.1472C5.60625 38.208 5.60411 38.2831 5.63129 38.3673C5.70865 38.6068 5.81786 38.8588 5.97218 39.0901C5.6567 38.8843 5.3537 38.6424 5.11987 38.3676C4.85026 38.0507 4.67422 37.6921 4.67422 37.2955C4.67422 36.4749 4.67599 36.0813 5.02303 35.7248C5.19825 35.5448 5.46295 35.373 5.86537 35.164C6.26747 34.9551 6.80393 34.7106 7.52079 34.3841C7.59905 34.3485 7.69316 34.348 7.77173 34.383C8.48841 34.7017 9.0247 34.9424 9.42664 35.1498C9.82884 35.3575 10.0935 35.5303 10.2686 35.7124C10.6157 36.0732 10.6175 36.4749 10.6175 37.2955C10.6175 37.6948 10.439 38.0557 10.1663 38.3742C9.92901 38.6511 9.62176 38.8945 9.30277 39.101C9.45996 38.8644 9.56914 38.6055 9.64514 38.3601C9.67131 38.2758 9.66817 38.2008 9.6424 38.1404C9.61655 38.0799 9.56894 38.0365 9.51125 38.0145C9.39545 37.9703 9.24507 38.013 9.1425 38.1563ZM7.32964 39.7808C7.03362 39.6634 6.57597 39.4621 6.12317 39.1854C5.92176 38.9271 5.7861 38.6293 5.69484 38.3468C5.67155 38.2747 5.67513 38.2162 5.69306 38.1728C5.71096 38.1293 5.74416 38.0984 5.78536 38.0822C5.86739 38.0501 5.98747 38.0757 6.07663 38.1987C6.73231 39.1028 7.11064 39.5572 7.32964 39.7808ZM6.26048 39.344C6.7263 39.6099 7.17467 39.7948 7.42649 39.89C6.91121 39.8428 6.53539 39.6294 6.26048 39.344Z" stroke="#151385" stroke-width="0.116861"/>
<path d="M9.64941 38.8314C21.5025 38.8314 38.4975 33.6393 38.4975 18.2972C38.4975 2.95503 38.2638 0.434059 9.01501 0.434059" stroke="#151385" stroke-width="0.584307"/>
<g filter="url(#filter1_d_1_32)">
<path d="M9.21536 5.07819C9.21536 5.03213 9.22491 4.98656 9.24334 4.94436L10.0627 3.07151C10.1159 2.94998 10.236 2.87145 10.3686 2.87145H11.6528H14.0234H18.7312H27.7449C27.9017 2.87145 28.0373 2.98051 28.0711 3.1336L28.6587 5.80472C28.7045 6.01305 28.5459 6.21035 28.3326 6.21035H23.99H21.611H19.4896C19.3473 6.21035 19.2383 6.08395 19.2592 5.94324C19.2801 5.80253 19.171 5.67613 19.0288 5.67613H18.3187C18.1832 5.67613 18.0612 5.75798 18.0098 5.88331L17.9606 6.00317C17.9092 6.1285 17.7872 6.21035 17.6517 6.21035H14.0985H9.54925C9.36488 6.21035 9.21536 6.06086 9.21536 5.87646V5.07819Z" fill="#151385"/>
</g>
<g filter="url(#filter2_d_1_32)">
<path d="M17.9596 5.85854C17.998 5.71173 18.1307 5.60935 18.2825 5.60935H18.9329C19.1516 5.60935 19.3113 5.81629 19.2558 6.02793L12.0237 33.6072C11.9852 33.7541 11.8525 33.8564 11.7008 33.8564H11.0504C10.8316 33.8564 10.672 33.6495 10.7275 33.4379L17.9596 5.85854Z" fill="#151385"/>
</g>
<g filter="url(#filter3_i_1_32)">
<path d="M25.4424 27.3122L24.5409 23.3255H18.4708L17.4491 27.3122H15.1052L18.7312 13.9098C18.9182 13.2287 19.1118 12.7078 19.3122 12.3472C19.5125 11.9733 19.7997 11.7129 20.1736 11.5659C20.5476 11.419 21.0684 11.3523 21.7362 11.3656L24.2204 11.4257L27.9666 27.3122H25.4424ZM20.9349 13.8698L19.0117 21.1619H24.0601L22.3172 13.5893H21.2153C21.0551 13.5893 20.9616 13.6828 20.9349 13.8698Z" fill="#151385"/>
</g>
<g filter="url(#filter4_i_1_32)">
<path d="M28.9365 26.4626L29.7285 25.1314C30.0325 25.3608 30.325 25.5514 30.6059 25.703C30.8868 25.8503 31.1691 25.9584 31.453 26.0274C31.7368 26.0964 32.0244 26.1283 32.3156 26.1232C32.6894 26.1167 33.0123 26.0545 33.2841 25.9367C33.5603 25.8145 33.7727 25.6499 33.9213 25.4429C34.0698 25.236 34.1417 24.9956 34.137 24.7217C34.1315 24.4131 34.0337 24.1583 33.8431 23.9573C33.657 23.7518 33.4126 23.5778 33.11 23.4352C32.8075 23.2883 32.4832 23.1461 32.1373 23.0087C31.8221 22.8837 31.5023 22.748 31.178 22.6015C30.858 22.4549 30.5657 22.2795 30.3013 22.0754C30.0368 21.867 29.8215 21.6142 29.6554 21.3171C29.4937 21.0198 29.4091 20.6582 29.4017 20.2323C29.3921 19.6802 29.5227 19.1975 29.7939 18.784C30.0648 18.3662 30.444 18.0421 30.9313 17.8119C31.4186 17.5773 31.9773 17.4545 32.6076 17.4435C33.051 17.4357 33.5062 17.4865 33.9734 17.5957C34.4449 17.7006 34.9109 17.8664 35.3714 18.0931L34.711 19.4939C34.3991 19.3167 34.0685 19.1812 33.719 19.0873C33.3694 18.989 33.036 18.9426 32.7187 18.9482C32.4057 18.9537 32.1306 19.0085 31.8932 19.1126C31.6602 19.2124 31.4779 19.3547 31.3462 19.5396C31.219 19.7201 31.1574 19.9299 31.1616 20.1689C31.1665 20.4515 31.2576 20.689 31.4349 20.8816C31.6166 21.0741 31.8522 21.2439 32.1417 21.3911C32.4312 21.5338 32.7402 21.6741 33.0687 21.8119C33.3972 21.9496 33.7259 22.0982 34.0548 22.2578C34.388 22.4128 34.6912 22.5989 34.9646 22.8158C35.2423 23.0327 35.4643 23.2941 35.6305 23.5999C35.8011 23.9056 35.8901 24.2759 35.8978 24.7106C35.9076 25.2757 35.7685 25.776 35.4805 26.2114C35.1967 26.6425 34.7917 26.9822 34.2655 27.2306C33.7393 27.4745 33.1219 27.6027 32.4134 27.6151C31.7788 27.6262 31.1684 27.5346 30.5824 27.3405C29.9963 27.1464 29.4477 26.8538 28.9365 26.4626Z" fill="url(#paint0_linear_1_32)"/>
</g>
<path d="M4.60767 35.8152C4.60767 35.8008 4.61235 35.7867 4.62102 35.7752L5.34926 34.8042C5.35561 34.7957 5.36388 34.7889 5.3734 34.7842L6.00579 34.4758C6.02879 34.4646 6.04335 34.4412 6.04329 34.4156L6.01852 24.468C6.01843 24.4303 6.04958 24.3999 6.08729 24.4011L6.86142 24.424L7.61267 24.4073L8.41401 24.424L9.14924 24.4317C9.1859 24.4321 9.21535 24.4618 9.21535 24.4985V34.4153C9.21535 34.441 9.23017 34.4645 9.25341 34.4755L9.90062 34.7838C9.91104 34.7887 9.91999 34.7963 9.9266 34.8057L10.6056 35.7758C10.6135 35.787 10.6177 35.8003 10.6177 35.814V36.4608V37.5159C10.6177 37.5247 10.6159 37.5334 10.6125 37.5416L10.2877 38.3213C10.2851 38.3274 10.2816 38.3332 10.2773 38.3383L9.73408 38.9902C9.69408 39.0382 9.61601 39.0099 9.61601 38.9474V36.5002C9.61601 36.4759 9.60272 36.4535 9.58142 36.4417L7.64485 35.3766C7.62481 35.3656 7.60053 35.3656 7.58049 35.3766L5.64393 36.4417C5.62259 36.4535 5.60934 36.4759 5.60934 36.5002V38.9474C5.60934 39.0099 5.53124 39.0382 5.49126 38.9902L4.94801 38.3383C4.94373 38.3332 4.94025 38.3274 4.93768 38.3213L4.6128 37.5416C4.60941 37.5334 4.60767 37.5247 4.60767 37.5159V36.4608V35.8152Z" fill="url(#paint1_linear_1_32)"/>
</g>
<defs>
<filter id="filter0_i_1_32" x="1.35339" y="0" width="9.44792" height="35.4632" filterUnits="userSpaceOnUse" color-interpolation-filters="sRGB">
<feFlood flood-opacity="0" result="BackgroundImageFix"/>
<feBlend mode="normal" in="SourceGraphic" in2="BackgroundImageFix" result="shape"/>
<feColorMatrix in="SourceAlpha" type="matrix" values="0 0 0 0 0 0 0 0 0 0 0 0 0 0 0 0 0 0 127 0" result="hardAlpha"/>
<feOffset dx="0.584307" dy="0.584307"/>
<feGaussianBlur stdDeviation="0.467446"/>
<feComposite in2="hardAlpha" operator="arithmetic" k2="-1" k3="1"/>
<feColorMatrix type="matrix" values="0 0 0 0 0 0 0 0 0 0 0 0 0 0 0 0 0 0 1 0"/>
<feBlend mode="color" in2="shape" result="effect1_innerShadow_1_32"/>
</filter>
<filter id="filter1_d_1_32" x="8.86478" y="2.52087" width="21.321" height="5.20868" filterUnits="userSpaceOnUse" color-interpolation-filters="sRGB">
<feFlood flood-opacity="0" result="BackgroundImageFix"/>
<feColorMatrix in="SourceAlpha" type="matrix" values="0 0 0 0 0 0 0 0 0 0 0 0 0 0 0 0 0 0 127 0" result="hardAlpha"/>
<feOffset dx="0.584307" dy="0.584307"/>
<feGaussianBlur stdDeviation="0.467446"/>
<feComposite in2="hardAlpha" operator="out"/>
<feColorMatrix type="matrix" values="0 0 0 0 0 0 0 0 0 0 0 0 0 0 0 0 0 0 0.8 0"/>
<feBlend mode="normal" in2="BackgroundImageFix" result="effect1_dropShadow_1_32"/>
<feBlend mode="normal" in="SourceGraphic" in2="effect1_dropShadow_1_32" result="shape"/>
</filter>
<filter id="filter2_d_1_32" x="10.3658" y="5.25876" width="10.4203" height="30.1169" filterUnits="userSpaceOnUse" color-interpolation-filters="sRGB">
<feFlood flood-opacity="0" result="BackgroundImageFix"/>
<feColorMatrix in="SourceAlpha" type="matrix" values="0 0 0 0 0 0 0 0 0 0 0 0 0 0 0 0 0 0 127 0" result="hardAlpha"/>
<feOffset dx="0.584307" dy="0.584307"/>
<feGaussianBlur stdDeviation="0.467446"/>
<feComposite in2="hardAlpha" operator="out"/>
<feColorMatrix type="matrix" values="0 0 0 0 0 0 0 0 0 0 0 0 0 0 0 0 0 0 0.8 0"/>
<feBlend mode="normal" in2="BackgroundImageFix" result="effect1_dropShadow_1_32"/>
<feBlend mode="normal" in="SourceGraphic" in2="effect1_dropShadow_1_32" result="shape"/>
</filter>
<filter id="filter3_i_1_32" x="15.1052" y="11.3639" width="13.7963" height="16.8831" filterUnits="userSpaceOnUse" color-interpolation-filters="sRGB">
<feFlood flood-opacity="0" result="BackgroundImageFix"/>
<feBlend mode="normal" in="SourceGraphic" in2="BackgroundImageFix" result="shape"/>
<feColorMatrix in="SourceAlpha" type="matrix" values="0 0 0 0 0 0 0 0 0 0 0 0 0 0 0 0 0 0 127 0" result="hardAlpha"/>
<feOffset dx="1.16861" dy="1.16861"/>
<feGaussianBlur stdDeviation="0.467446"/>
<feComposite in2="hardAlpha" operator="arithmetic" k2="-1" k3="1"/>
<feColorMatrix type="matrix" values="0 0 0 0 0 0 0 0 0 0 0 0 0 0 0 0 0 0 0.25 0"/>
<feBlend mode="normal" in2="shape" result="effect1_innerShadow_1_32"/>
</filter>
<filter id="filter4_i_1_32" x="28.9365" y="17.4427" width="8.13038" height="11.3419" filterUnits="userSpaceOnUse" color-interpolation-filters="sRGB">
<feFlood flood-opacity="0" result="BackgroundImageFix"/>
<feBlend mode="normal" in="SourceGraphic" in2="BackgroundImageFix" result="shape"/>
<feColorMatrix in="SourceAlpha" type="matrix" values="0 0 0 0 0 0 0 0 0 0 0 0 0 0 0 0 0 0 127 0" result="hardAlpha"/>
<feOffset dx="1.16861" dy="1.16861"/>
<feGaussianBlur stdDeviation="0.584307"/>
<feComposite in2="hardAlpha" operator="arithmetic" k2="-1" k3="1"/>
<feColorMatrix type="matrix" values="0 0 0 0 0 0 0 0 0 0 0 0 0 0 0 0 0 0 0.2 0"/>
<feBlend mode="normal" in2="shape" result="effect1_innerShadow_1_32"/>
</filter>
<linearGradient id="paint0_linear_1_32" x1="35.2911" y1="14.212" x2="35.7479" y2="40.3849" gradientUnits="userSpaceOnUse">
<stop offset="0.37" stop-color="#151385"/>
<stop offset="0.8" stop-color="#071F53"/>
</linearGradient>
<linearGradient id="paint1_linear_1_32" x1="7.61267" y1="34.3907" x2="7.61267" y2="39.0651" gradientUnits="userSpaceOnUse">
<stop offset="0.09" stop-color="#151385"/>
<stop offset="0.655" stop-color="#071F53"/>
</linearGradient>
<clipPath id="clip0_1_32">
<rect width="40" height="40" fill="white"/>
</clipPath>
</defs>
</svg>
