<svg width="23" height="19" viewBox="0 0 23 19" fill="none" xmlns="http://www.w3.org/2000/svg">
<path fill-rule="evenodd" clip-rule="evenodd" d="M1.15 10.6875C0.514878 10.6875 0 10.1559 0 9.5C0 8.84414 0.514878 8.3125 1.15 8.3125H21.85C22.4851 8.3125 23 8.84414 23 9.5C23 10.1559 22.4851 10.6875 21.85 10.6875H1.15ZM1.15 2.375C0.514878 2.375 0 1.84333 0 1.1875C0 0.531667 0.514878 0 1.15 0H21.85C22.4851 0 23 0.531667 23 1.1875C23 1.84333 22.4851 2.375 21.85 2.375H1.15ZM1.15 19C0.514878 19 0 18.4684 0 17.8125C0 17.1566 0.514878 16.625 1.15 16.625H21.85C22.4851 16.625 23 17.1566 23 17.8125C23 18.4684 22.4851 19 21.85 19H1.15Z" fill="#050C9C"/>
</svg>
